<svg width="530" height="268" viewBox="0 0 530 268" fill="none" xmlns="http://www.w3.org/2000/svg">
<g filter="url(#filter0_d_119_504)">
<mask id="path-1-inside-1_119_504" fill="white">
<path fill-rule="evenodd" clip-rule="evenodd" d="M23.5377 33.8526C16.7801 47.1151 16.7801 64.4767 16.7801 99.2V156.368C16.7801 181.22 16.7801 197.178 19.2575 209.106C20.5247 215.206 20.2483 221.719 17.1112 227.102L2.97269 251.364C-0.127975 256.685 4.65812 263.129 10.6478 261.697L49.7549 252.351C53.5605 251.441 57.5269 251.753 61.3321 252.664C73.4609 255.568 89.7772 255.568 115.98 255.568H430.542C465.265 255.568 482.627 255.568 495.889 248.811C507.556 242.866 517.04 233.382 522.984 221.716C529.742 208.453 529.742 191.092 529.742 156.368V99.2C529.742 64.4768 529.742 47.1151 522.984 33.8526C517.04 22.1865 507.556 12.7017 495.889 6.7576C482.627 0 465.265 0 430.542 0H115.98C81.2568 0 63.8952 0 50.6327 6.7576C38.9666 12.7017 29.4818 22.1865 23.5377 33.8526Z"/>
</mask>
<path fill-rule="evenodd" clip-rule="evenodd" d="M23.5377 33.8526C16.7801 47.1151 16.7801 64.4767 16.7801 99.2V156.368C16.7801 181.22 16.7801 197.178 19.2575 209.106C20.5247 215.206 20.2483 221.719 17.1112 227.102L2.97269 251.364C-0.127975 256.685 4.65812 263.129 10.6478 261.697L49.7549 252.351C53.5605 251.441 57.5269 251.753 61.3321 252.664C73.4609 255.568 89.7772 255.568 115.98 255.568H430.542C465.265 255.568 482.627 255.568 495.889 248.811C507.556 242.866 517.04 233.382 522.984 221.716C529.742 208.453 529.742 191.092 529.742 156.368V99.2C529.742 64.4768 529.742 47.1151 522.984 33.8526C517.04 22.1865 507.556 12.7017 495.889 6.7576C482.627 0 465.265 0 430.542 0H115.98C81.2568 0 63.8952 0 50.6327 6.7576C38.9666 12.7017 29.4818 22.1865 23.5377 33.8526Z" fill="white"/>
<path d="M23.5377 33.8526L27.1017 35.6686L27.1017 35.6686L23.5377 33.8526ZM2.97269 251.364L-0.483323 249.35L-0.483326 249.35L2.97269 251.364ZM10.6478 261.697L9.71805 257.807L9.71804 257.807L10.6478 261.697ZM495.889 248.811L497.705 252.375L497.705 252.375L495.889 248.811ZM522.984 221.716L526.549 223.532L526.549 223.532L522.984 221.716ZM522.984 33.8526L526.549 32.0366L526.549 32.0366L522.984 33.8526ZM495.889 6.7576L497.705 3.19357L497.705 3.19357L495.889 6.7576ZM50.6327 6.7576L48.8167 3.19357L48.8167 3.19357L50.6327 6.7576ZM49.7549 252.351L48.8251 248.46L49.7549 252.351ZM61.3321 252.664L60.4008 256.554L61.3321 252.664ZM17.1112 227.102L20.5672 229.116L17.1112 227.102ZM20.7801 99.2C20.7801 81.7723 20.7832 68.9422 21.6115 58.8042C22.436 48.713 24.0581 41.6419 27.1017 35.6686L19.9737 32.0366C16.2597 39.3258 14.503 47.5668 13.6381 58.1528C12.777 68.6921 12.7801 81.9043 12.7801 99.2H20.7801ZM20.7801 156.368V99.2H12.7801V156.368H20.7801ZM23.174 208.292C20.801 196.868 20.7801 181.417 20.7801 156.368H12.7801C12.7801 181.023 12.7592 197.489 15.3411 209.919L23.174 208.292ZM6.42871 253.378L20.5672 229.116L13.6552 225.088L-0.483323 249.35L6.42871 253.378ZM9.71804 257.807C7.15105 258.42 5.09983 255.659 6.42871 253.378L-0.483326 249.35C-5.35578 257.712 2.16519 267.837 11.5776 265.587L9.71804 257.807ZM48.8251 248.46L9.71805 257.807L11.5776 265.587L50.6847 256.241L48.8251 248.46ZM115.98 251.568C89.5465 251.568 73.8173 251.541 62.2635 248.774L60.4008 256.554C73.1046 259.596 90.0079 259.568 115.98 259.568V251.568ZM430.542 251.568H115.98V259.568H430.542V251.568ZM494.074 245.247C488.1 248.29 481.029 249.912 470.938 250.737C460.8 251.565 447.97 251.568 430.542 251.568V259.568C447.838 259.568 461.05 259.571 471.589 258.71C482.175 257.845 490.416 256.089 497.705 252.375L494.074 245.247ZM519.42 219.9C513.86 230.813 504.987 239.686 494.074 245.247L497.705 252.375C510.124 246.047 520.221 235.95 526.549 223.532L519.42 219.9ZM525.742 156.368C525.742 173.796 525.739 186.626 524.911 196.764C524.086 206.855 522.464 213.926 519.42 219.9L526.549 223.532C530.263 216.242 532.019 208.001 532.884 197.415C533.745 186.876 533.742 173.664 533.742 156.368H525.742ZM525.742 99.2V156.368H533.742V99.2H525.742ZM519.42 35.6685C522.464 41.6419 524.086 48.713 524.911 58.8043C525.739 68.9422 525.742 81.7724 525.742 99.2H533.742C533.742 81.9044 533.745 68.6921 532.884 58.1528C532.019 47.5668 530.263 39.3258 526.549 32.0366L519.42 35.6685ZM494.074 10.3216C504.987 15.8823 513.86 24.7552 519.42 35.6686L526.549 32.0366C520.221 19.6179 510.124 9.52121 497.705 3.19357L494.074 10.3216ZM430.542 4C447.97 4 460.8 4.00311 470.938 4.83142C481.029 5.6559 488.1 7.27803 494.074 10.3216L497.705 3.19357C490.416 -0.52043 482.175 -2.27711 471.589 -3.14202C461.05 -4.00311 447.838 -4 430.542 -4V4ZM115.98 4H430.542V-4H115.98V4ZM52.4486 10.3216C58.422 7.27803 65.4931 5.6559 75.5843 4.83142C85.7223 4.00311 98.5525 4 115.98 4V-4C98.6845 -4 85.4722 -4.00311 74.9329 -3.14202C64.3469 -2.27711 56.1059 -0.52043 48.8167 3.19357L52.4486 10.3216ZM27.1017 35.6686C32.6624 24.7551 41.5352 15.8823 52.4486 10.3216L48.8167 3.19357C36.398 9.52121 26.3013 19.6179 19.9737 32.0366L27.1017 35.6686ZM50.6847 256.241C53.6829 255.525 56.976 255.734 60.4008 256.554L62.2635 248.774C58.0779 247.772 53.438 247.358 48.8251 248.46L50.6847 256.241ZM15.3411 209.919C16.4864 215.433 16.1292 220.843 13.6552 225.088L20.5672 229.116C24.3675 222.595 24.563 214.98 23.174 208.292L15.3411 209.919Z" fill="#2C2525" mask="url(#path-1-inside-1_119_504)"/>
</g>
<defs>
<filter id="filter0_d_119_504" x="2" y="0" width="527.742" height="267.9" filterUnits="userSpaceOnUse" color-interpolation-filters="sRGB">
<feFlood flood-opacity="0" result="BackgroundImageFix"/>
<feColorMatrix in="SourceAlpha" type="matrix" values="0 0 0 0 0 0 0 0 0 0 0 0 0 0 0 0 0 0 127 0" result="hardAlpha"/>
<feOffset dy="6"/>
<feComposite in2="hardAlpha" operator="out"/>
<feColorMatrix type="matrix" values="0 0 0 0 0.172549 0 0 0 0 0.145098 0 0 0 0 0.145098 0 0 0 1 0"/>
<feBlend mode="normal" in2="BackgroundImageFix" result="effect1_dropShadow_119_504"/>
<feBlend mode="normal" in="SourceGraphic" in2="effect1_dropShadow_119_504" result="shape"/>
</filter>
</defs>
</svg>
